# xmcd CD database file
# Copyright (C) 1997 Ti Kan
# 
# Track frame offsets:
#     150
#     14725
#     20000
#     31200
#     55445
#     71952
#     92430
#     107500
#     118327
#     129250
#     137422
#     154755
#     167322
#     176970
#     189305
# 
# Disc length: 2791 seconds
# 
# Revision: 1
# Processed by: cddbd v1.4b41PL1 Copyright (c) Steve Scherf et al.
# Submitted via: DiscPlay 4.0.4
# 
DISCID=c90ae50f
DTITLE=Jon Hendricks - Evolution Of The Blues Song
DYEAR=1900
DGENRE=
TTITLE0=Introduction
TTITLE1=Amo
TTITLE2=Some Stopped On De Way
TTITLE3=Swing Low, Sweet Chariot
TTITLE4=New Orleans
TTITLE5=If I Had My Share
TTITLE6=Please Send Me Someone To Love
TTITLE7=Sufferin' Blues
TTITLE8=That's Enough
TTITLE9=Aw, Gal
TTITLE10=See See Rider
TTITLE11=Jumpin' With Symphony Sid
TTITLE12=Sun Gonna Shine In My Door
TTITLE13=W. P. A. Blues
TTITLE14=Sometimes I Feel Like A Motherless Child
EXTD=
EXTT0=
EXTT1=
EXTT2=
EXTT3=
EXTT4=
EXTT5=
EXTT6=
EXTT7=
EXTT8=
EXTT9=
EXTT10=
EXTT11=
EXTT12=
EXTT13=
EXTT14=
PLAYORDER=
